<svg width="743" height="743" viewBox="0 0 743 743" fill="none" xmlns="http://www.w3.org/2000/svg">
<circle cx="64" cy="64" r="60" fill="black" stroke="black" stroke-width="8"/>
<path d="M64 128V207" stroke="black" stroke-width="8"/>
<path d="M679 536V615" stroke="black" stroke-width="8"/>
<path d="M107 313L225 436" stroke="black" stroke-width="8"/>
<path d="M311 436L439 313" stroke="black" stroke-width="8"/>
<path d="M516 313L635 428" stroke="black" stroke-width="8"/>
<circle cx="269" cy="64" r="60" stroke="black" stroke-width="8"/>
<circle cx="269" cy="269" r="60" stroke="black" stroke-width="8"/>
<circle cx="269" cy="474" r="60" fill="black" stroke="black" stroke-width="8"/>
<circle cx="269" cy="679" r="60" stroke="black" stroke-width="8"/>
<circle cx="474" cy="64" r="60" stroke="black" stroke-width="8"/>
<circle cx="474" cy="269" r="60" fill="black" stroke="black" stroke-width="8"/>
<circle cx="474" cy="474" r="60" stroke="black" stroke-width="8"/>
<circle cx="474" cy="679" r="60" stroke="black" stroke-width="8"/>
<circle cx="679" cy="64" r="60" stroke="black" stroke-width="8"/>
<circle cx="679" cy="269" r="60" stroke="black" stroke-width="8"/>
<circle cx="679" cy="474" r="60" fill="black" stroke="black" stroke-width="8"/>
<circle cx="679" cy="679" r="60" fill="black" stroke="black" stroke-width="8"/>
<circle cx="64" cy="679" r="60" stroke="black" stroke-width="8"/>
<circle cx="64" cy="474" r="60" stroke="black" stroke-width="8"/>
<circle cx="64" cy="269" r="60" fill="black" stroke="black" stroke-width="8"/>
</svg>
